:SAMPLES-PER-SECOND 30
:FULLY-SPECIFIED
:DEGREES
159
root  -30.0006 41.1517 35.4815 -3.61391 -3.0247 -0.814529
RightUpLeg  -2.98872 -7.37144 -5.46228
RightLeg  6.21654 6.37224 2.73367
RightFoot  2.3634 -0.00538931 0.178476
RightToes  -5.8209e-011 0 -3.6325e-017
Spine  1.34986 -0.317663 3.02973
Spine1  7.08261 0.0725525 -1.86323
HEad  -8.44235 5.66103 -2.74056
LeftShoulder1  3.73937 -6.81352 -30.1612
LeftArm  -10.8516 18.7364 -8.41774
LeftForeArm  17.0434 -7.56485 -3.97325
LeftHand  -0.244104 0.0205437 5.32207
RightShoulder  3.29717 6.09516 28.3189
RightArm  -11.666 -17.3957 13.4481
RightForeArm  -3.67646 12.1399 5.75165
RightHand  -1.40726 4.79812 -16.218
LeftUpLeg  0.259718 4.6755 0.102407
LeftLeg  6.89729 8.00159 -2.62239
LeftFoot  -3.01826 -0.346114 5.00489
LeftToes  5.72949e-011 -2.03295e-011 6.54899e-012
160
root  -30.0732 41.215 35.9468 -3.48981 -3.46452 -0.944159
RightUpLeg  -1.81885 -7.35612 -5.42572
RightLeg  5.13768 6.71688 2.94106
RightFoot  2.25607 0.0460109 -0.2567
RightToes  -5.8209e-011 0 -3.6325e-017
Spine  0.466773 0.0114697 3.44006
Spine1  7.226 0.37995 -1.7364
HEad  -7.71711 5.66377 -2.54999
LeftShoulder1  3.07884 -6.03656 -26.084
LeftArm  -10.4367 18.7249 -4.27079
LeftForeArm  14.9019 -6.68954 -3.79084
LeftHand  -0.244104 0.0205437 5.32207
RightShoulder  2.44176 4.78404 23.2364
RightArm  -12.598 -14.8501 8.94141
RightForeArm  -5.69953 10.763 5.76307
RightHand  -1.49769 4.8967 -17.0736
LeftUpLeg  1.5213 4.44755 0.416624
LeftLeg  5.74278 8.54685 -2.8331
LeftFoot  -3.23396 -0.318256 4.7639
LeftToes  5.72949e-011 -2.03295e-011 6.54899e-012
161
root  -30.1229 41.2556 36.3592 -3.26503 -4.10146 -1.13008
RightUpLeg  -1.0034 -7.31672 -5.28725
RightLeg  4.2476 7.32769 3.03285
RightFoot  1.95892 0.0465715 -0.28426
RightToes  -5.8209e-011 0 -3.6325e-017
Spine  -0.29666 0.465681 4.46087
Spine1  7.2816 0.946097 -2.28235
HEad  -7.22943 5.51848 -2.59133
LeftShoulder1  2.52465 -5.27999 -22.3645
LeftArm  -10.562 18.2512 -0.255176
LeftForeArm  14.1002 -7.34692 -3.62646
LeftHand  -0.244104 0.0205437 5.32207
RightShoulder  1.73075 3.57108 17.9262
RightArm  -13.5092 -12.4974 5.4222
RightForeArm  -7.93167 9.01898 5.71194
RightHand  -1.48759 4.55369 -17.5201
LeftUpLeg  2.37589 4.36527 0.712918
LeftLeg  5.0325 9.17118 -2.93155
LeftFoot  -3.52355 -0.292888 4.59535
LeftToes  5.72949e-011 -2.03295e-011 6.54899e-012
162
root  -30.172 41.278 36.7103 -2.85225 -4.57774 -1.25827
RightUpLeg  -0.690555 -7.23073 -5.10267
RightLeg  3.71838 7.745 3.04021
RightFoot  1.81233 0.0438669 -0.273102
RightToes  -5.8209e-011 0 -3.6325e-017
Spine  -0.85048 0.845053 5.35902
Spine1  6.89283 1.42741 -2.87959
HEad  -6.85421 5.37962 -2.71774
LeftShoulder1  1.96892 -4.25187 -18.7621
LeftArm  -10.9907 17.2008 2.93308
LeftForeArm  14.4387 -8.705 -3.55594
LeftHand  -0.244104 0.0205437 5.32207
RightShoulder  1.23176 2.64321 13.0762
RightArm  -13.9778 -10.5331 2.44711
RightForeArm  -10.3792 7.68916 5.67602
RightHand  -1.36498 3.78958 -17.3983
LeftUpLeg  2.76755 4.38177 0.925711
LeftLeg  4.61693 9.58212 -3.00929
LeftFoot  -3.86402 -0.267337 4.44605
LeftToes  5.72949e-011 -2.03295e-011 6.54899e-012
163
root  -30.2324 41.2899 36.9971 -2.39508 -4.66356 -1.32911
RightUpLeg  -0.748631 -7.10892 -4.89562
RightLeg  3.75471 7.61748 3.00457
RightFoot  1.64855 0.070885 -0.524137
RightToes  -5.8209e-011 0 -3.6325e-017
Spine  -1.10825 1.0292 5.68299
Spine1  6.22788 1.6034 -2.9813
HEad  -6.60205 5.24725 -2.8627
LeftShoulder1  1.45236 -3.0428 -15.2885
LeftArm  -11.7093 15.812 4.90114
LeftForeArm  14.5322 -10.1401 -3.52294
LeftHand  -0.244104 0.0205437 5.32207
RightShoulder  0.832709 1.64761 8.74074
RightArm  -14.5411 -8.52634 0.282322
RightForeArm  -11.5634 6.97175 5.63614
RightHand  -1.2738 3.30675 -17.1364
LeftUpLeg  2.92296 4.39024 1.07421
LeftLeg  4.30298 9.63564 -3.0828
LeftFoot  -4.12002 -0.248897 4.33782
LeftToes  5.72949e-011 -2.03295e-011 6.54899e-012
164
root  -30.3008 41.3014 37.227 -2.06932 -4.47022 -1.38798
RightUpLeg  -0.758331 -7.01195 -4.72897
RightLeg  3.90047 7.20569 2.9865
RightFoot  1.35149 0.101367 -0.827914
RightToes  -5.8209e-011 0 -3.6325e-017
Spine  -1.11251 1.05964 5.58018
Spine1  5.68389 1.56353 -2.73311
HEad  -6.59567 5.22486 -2.87018
LeftShoulder1  1.07531 -2.03915 -12.232
LeftArm  -12.7692 14.5278 5.9342
LeftForeArm  14.1462 -11.5231 -3.40114
LeftHand  -0.244104 0.0205437 5.32207
RightShoulder  0.50421 0.425412 5.01883
RightArm  -15.9081 -6.44988 -0.854238
RightForeArm  -11.5433 6.92056 5.45402
RightHand  -1.27797 3.36885 -17.0741
LeftUpLeg  3.08519 4.37919 1.21053
LeftLeg  4.0079 9.43885 -3.12879
LeftFoot  -4.20506 -0.243893 4.31454
LeftToes  5.72949e-011 -2.03295e-011 6.54899e-012
165
root  -30.3722 41.3138 37.417 -1.8646 -4.04258 -1.42882
RightUpLeg  -0.532306 -6.98633 -4.65084
RightLeg  3.76048 6.71678 3.01039
RightFoot  1.09325 0.11389 -0.975868
RightToes  -5.8209e-011 0 -3.6325e-017
Spine  -1.02627 0.963512 5.27368
Spine1  5.32566 1.39643 -2.44267
HEad  -6.76621 5.39272 -2.58697
LeftShoulder1  0.851159 -1.43764 -9.81462
LeftArm  -14.0383 13.4352 6.45761
LeftForeArm  14.0245 -12.743 -3.22547
LeftHand  -0.244104 0.0205437 5.32207
RightShoulder  0.294312 -0.657131 2.22931
RightArm  -17.9909 -4.7853 -1.3355
RightForeArm  -11.9155 7.45956 5.18795
RightHand  -1.34326 3.66591 -17.3564
LeftUpLeg  3.26478 4.37548 1.3433
LeftLeg  3.75323 9.00114 -3.15552
LeftFoot  -4.2116 -0.242926 4.29695
LeftToes  5.72949e-011 -2.03295e-011 6.54899e-012
166
root  -30.4402 41.3237 37.5809 -1.66574 -3.32919 -1.45573
RightUpLeg  -0.257383 -7.00346 -4.60689
RightLeg  3.53739 6.02598 3.03908
RightFoot  0.936191 0.120289 -1.0608
RightToes  -5.8209e-011 0 -3.6325e-017
Spine  -0.982258 0.741792 4.85086
Spine1  5.00659 1.08803 -2.07046
HEad  -6.86918 5.55866 -2.18741
LeftShoulder1  0.739992 -1.19205 -8.17647
LeftArm  -15.1086 12.3241 6.60555
LeftForeArm  14.0841 -13.4593 -3.12567
LeftHand  -0.244104 0.0205437 5.32207
RightShoulder  0.185728 -1.36125 0.310288
RightArm  -19.9507 -3.63576 -1.4425
RightForeArm  -13.1159 8.07516 4.99378
RightHand  -1.52893 4.40683 -18.2356
LeftUpLeg  3.3655 4.3686 1.47286
LeftLeg  3.53754 8.26759 -3.18155
LeftFoot  -4.23856 -0.239775 4.21768
LeftToes  5.72949e-011 -2.03295e-011 6.54899e-012
167
root  -30.4997 41.3314 37.7225 -1.4441 -2.51503 -1.50329
RightUpLeg  -0.103058 -6.99157 -4.51948
RightLeg  3.48679 5.17714 3.04162
RightFoot  0.7417 0.130392 -1.19636
RightToes  -5.8209e-011 0 -3.6325e-017
Spine  -1.00465 0.492068 4.42835
Spine1  4.77155 0.729417 -1.588
HEad  -6.81017 5.51882 -1.92165
LeftShoulder1  0.719028 -1.27958 -7.36445
LeftArm  -15.6629 11.1726 6.43497
LeftForeArm  13.6926 -13.4342 -3.14358
LeftHand  -0.244104 0.0205437 5.32207
RightShoulder  0.127906 -1.81395 -0.944358
RightArm  -21.1186 -2.64007 -1.20363
RightForeArm  -13.8735 8.19136 4.88233
RightHand  -1.86133 5.76322 -19.4969
LeftUpLeg  3.40267 4.36281 1.61823
LeftLeg  3.31199 7.42263 -3.21132
LeftFoot  -4.25243 -0.238364 4.15007
LeftToes  5.72949e-011 -2.03295e-011 6.54899e-012
168
root  -30.5546 41.3415 37.8436 -1.24577 -1.91707 -1.56379
RightUpLeg  -0.00115439 -6.92255 -4.38955
RightLeg  3.44642 4.47401 3.02113
RightFoot  0.52243 0.141164 -1.3386
RightToes  -5.8209e-011 0 -3.6325e-017
Spine  -1.06128 0.323566 4.12471
Spine1  4.73024 0.489501 -1.28162
HEad  -6.70693 5.38172 -1.68587
LeftShoulder1  0.76242 -1.6402 -7.13766
LeftArm  -15.7339 10.1619 6.04805
LeftForeArm  13.0418 -12.789 -3.23429
LeftHand  -0.244104 0.0205437 5.32207
RightShoulder  0.111867 -1.97058 -1.26507
RightArm  -21.3038 -1.67806 -0.919182
RightForeArm  -13.443 7.74294 4.8338
RightHand  -2.05624 6.62228 -20.007
LeftUpLeg  3.48526 4.39544 1.7792
LeftLeg  3.00477 6.76207 -3.2571
LeftFoot  -4.1815 -0.241117 4.14411
LeftToes  5.72949e-011 -2.03295e-011 6.54899e-012
169
root  -30.611 41.355 37.9479 -1.06656 -1.58773 -1.58948
RightUpLeg  0.122625 -6.81943 -4.25954
RightLeg  3.23061 4.0069 2.97622
RightFoot  0.428743 0.148332 -1.42391
RightToes  -5.8209e-011 0 -3.6325e-017
Spine  -1.08949 0.208951 3.89409
Spine1  4.73781 0.373623 -1.2929
HEad  -6.80849 5.46222 -0.971329
LeftShoulder1  0.828481 -2.0735 -7.18572
LeftArm  -15.4348 9.34773 5.53912
LeftForeArm  12.9511 -11.723 -3.3682
LeftHand  -0.244104 0.0205437 5.32207
RightShoulder  0.151743 -1.61912 -0.45444
RightArm  -20.5856 -0.960815 -0.880662
RightForeArm  -12.2875 6.99429 4.89503
RightHand  -1.76456 5.62907 -18.6852
LeftUpLeg  3.63481 4.44846 1.91674
LeftLeg  2.58586 6.35597 -3.32583
LeftFoot  -4.03811 -0.241731 4.11376
LeftToes  5.72949e-011 -2.03295e-011 6.54899e-012
